<svg xmlns="http://www.w3.org/2000/svg" xmlns:xlink="http://www.w3.org/1999/xlink" viewBox="0 0 206 47" fill="none">
  <defs>
    <linearGradient x1="50%" y1="0%" x2="50%" y2="100%" id="b-shaka">
      <stop stop-color="#F32B05" offset="0%" />
      <stop stop-color="#B00012" offset="100%" />
    </linearGradient>
    <linearGradient x1="50%" y1="24.608%" x2="50%" y2="72.622%" id="c-shaka">
      <stop stop-color="#FF6956" offset=".792%" />
      <stop stop-color="#FF6956" stop-opacity=".01" offset="96.579%" />
    </linearGradient>
    <path
      d="M11.207 0h41.586a2 2 0 011.77 1.069l8.702 16.534a2 2 0 01-.453 2.437L33.317 45.848a2 2 0 01-2.634 0L1.188 20.04a2 2 0 01-.453-2.437L9.438 1.069A2 2 0 0111.207 0z"
      id="a-shaka"
    />
  </defs>
  <g fill="none" fill-rule="evenodd">
    <text
      font-family="Montserrat, -apple-system, BlinkMacSystemFont, 'Segoe UI', Roboto, sans-serif"
      font-size="20"
      font-weight="bold"
      fill="#333738"
    >
      <tspan x="80" y="31">ShakaCode</tspan>
    </text>
    <g>
      <mask id="d-shaka" fill="#fff">
        <use xlink:href="#a-shaka" />
      </mask>
      <use fill="url(#b-shaka)" xlink:href="#a-shaka" />
      <path
        d="M7 33c22.118-2.144 33.57-6.578 34.354-13.303 1.178-10.088-17.4-1.454-20.927-1 9.658-7.17 22.018-11.721 37.08-13.652H66V47H7V33z"
        fill="url(#c-shaka)"
        mask="url(#d-shaka)"
      />
    </g>
  </g>
</svg>
